<svg width="860" height="420" viewBox="0 0 860 420" xmlns="http://www.w3.org/2000/svg" xmlns:xlink="http://www.w3.org/1999/xlink"><defs><path d="M20.511 0H839.49c7.132 0 9.718.743 12.326 2.137a14.538 14.538 0 016.048 6.048C859.257 10.793 860 13.38 860 20.511V399.49c0 7.132-.743 9.718-2.137 12.326a14.538 14.538 0 01-6.048 6.048c-2.608 1.394-5.194 2.137-12.326 2.137H20.51c-7.132 0-9.718-.743-12.326-2.137a14.538 14.538 0 01-6.048-6.048C.743 409.207 0 406.62 0 399.489V20.51c0-7.132.743-9.718 2.137-12.326a14.538 14.538 0 016.048-6.048C10.793.743 13.38 0 20.511 0z" id="a"/><path d="M99.866 20.31c3.488 0 6.666.547 9.533 1.64 2.867 1.094 5.328 2.661 7.383 4.7 2.054 2.04 3.65 4.516 4.788 7.428 1.138 2.911 1.707 6.185 1.707 9.82 0 3.666-.569 6.97-1.707 9.91-1.138 2.942-2.734 5.44-4.788 7.494-2.055 2.055-4.516 3.636-7.383 4.745-2.867 1.108-6.045 1.662-9.533 1.662-3.518 0-6.718-.554-9.6-1.662-2.882-1.109-5.365-2.69-7.449-4.745-2.084-2.054-3.695-4.552-4.833-7.493-1.138-2.941-1.707-6.245-1.707-9.91 0-3.636.569-6.91 1.707-9.821 1.138-2.912 2.75-5.388 4.833-7.427 2.084-2.04 4.567-3.607 7.45-4.7 2.881-1.094 6.081-1.641 9.599-1.641zm96.79-12.637v13.435h11.174v9.4h-11.173v22.835l.006.286c.043.937.3 1.721.77 2.353.517.694 1.263 1.041 2.239 1.041.502 0 .923-.051 1.263-.155.34-.103.636-.221.887-.354.251-.133.488-.252.71-.355.221-.104.48-.155.776-.155.413 0 .746.096.997.288.252.192.51.495.776.909l4.168 6.518-.413.3a19.049 19.049 0 01-5.573 2.693 23.788 23.788 0 01-6.872.997c-2.188 0-4.117-.317-5.787-.953-1.67-.635-3.074-1.537-4.212-2.705-1.138-1.167-2.003-2.579-2.594-4.234-.591-1.655-.887-3.503-.887-5.543V30.508h-3.902l-.21-.007a2.573 2.573 0 01-1.608-.68c-.502-.458-.753-1.13-.753-2.018v-5.365l7.316-1.419 2.704-11.218.053-.189c.395-1.293 1.382-1.939 2.963-1.939h7.183zM389.129.623V67h-8.513l-.28-.007c-.735-.038-1.358-.228-1.87-.57-.577-.384-.984-.96-1.22-1.729l-1.064-3.503-.462.48a26.669 26.669 0 01-2.42 2.18 18.126 18.126 0 01-3.26 2.063 17.236 17.236 0 01-3.768 1.33c-1.345.31-2.801.465-4.368.465-2.394 0-4.611-.532-6.65-1.596-2.04-1.064-3.8-2.601-5.277-4.611-1.478-2.01-2.638-4.471-3.48-7.383-.843-2.911-1.265-6.23-1.265-9.954 0-3.43.473-6.614 1.42-9.555.945-2.942 2.283-5.484 4.012-7.627a18.634 18.634 0 016.23-5.032c2.424-1.212 5.099-1.818 8.025-1.818 2.365 0 4.368.347 6.008 1.042a17.342 17.342 0 014.457 2.727V.623h13.745zM41.912 2.397v11.528H15.396v16.361h22.082V41.86H15.396V67H.321V2.397h41.59zm30.55 17.736c2.099 0 3.784.502 5.055 1.507l-1.774 10.11-.044.2c-.128.515-.35.884-.665 1.108-.355.251-.828.377-1.42.377-.502 0-1.093-.067-1.773-.2-.68-.133-1.537-.2-2.572-.2-3.606 0-6.444 1.922-8.513 5.765V67H47.011V21.02h8.158l.285.003a6.44 6.44 0 011.422.174c.459.118.843.303 1.153.554.31.251.547.584.71.998.162.414.303.916.421 1.507l.754 4.301.318-.481c1.604-2.375 3.39-4.269 5.357-5.682 2.099-1.508 4.39-2.261 6.873-2.261zm84.2.177c2.513 0 4.738.436 6.674 1.308 1.936.872 3.57 2.084 4.9 3.636 1.33 1.552 2.335 3.4 3.015 5.542.68 2.143 1.02 4.471 1.02 6.984V67h-13.746V37.78l-.005-.37c-.054-2.07-.57-3.698-1.547-4.884-1.035-1.257-2.557-1.885-4.567-1.885a9.565 9.565 0 00-4.257.976c-1.33.65-2.6 1.522-3.813 2.616V67h-13.745V21.02h8.513l.28.007c.735.037 1.358.227 1.87.569.577.384.983.96 1.22 1.73l.798 2.66.536-.49a33.136 33.136 0 012.213-1.816 16.1 16.1 0 013.037-1.796 18.028 18.028 0 013.503-1.153c1.257-.28 2.624-.421 4.102-.421zm131.78-17.913v11.528h-26.516v15.076h20.308v11.085h-20.308v15.386h26.516V67H246.85V2.397h41.59zm34.53 17.913c2.513 0 4.738.436 6.674 1.308 1.936.872 3.57 2.084 4.9 3.636 1.33 1.552 2.335 3.4 3.015 5.542.68 2.143 1.02 4.471 1.02 6.984V67h-13.746V37.78l-.005-.37c-.054-2.07-.57-3.698-1.547-4.884-1.035-1.257-2.557-1.885-4.567-1.885a9.565 9.565 0 00-4.257.976c-1.33.65-2.6 1.522-3.813 2.616V67h-13.745V21.02h8.513l.28.007c.735.037 1.358.227 1.87.569.577.384.983.96 1.22 1.73l.798 2.66.536-.49a33.136 33.136 0 012.213-1.816 16.1 16.1 0 013.037-1.796 18.028 18.028 0 013.503-1.153c1.257-.28 2.624-.421 4.102-.421zM99.867 30.508c-3.252 0-5.631 1.109-7.139 3.326-1.507 2.217-2.261 5.601-2.261 10.154 0 4.552.754 7.944 2.261 10.176 1.508 2.231 3.887 3.347 7.139 3.347 3.163 0 5.49-1.116 6.983-3.347 1.493-2.232 2.24-5.624 2.24-10.176 0-4.553-.747-7.937-2.24-10.154-1.492-2.217-3.82-3.326-6.983-3.326zm268.334-.266c-1.272 0-2.44.251-3.503.754-1.065.502-1.988 1.308-2.772 2.416-.783 1.109-1.396 2.55-1.84 4.324-.443 1.773-.665 3.916-.665 6.429 0 2.424.178 4.463.532 6.119.355 1.655.85 2.993 1.486 4.013.635 1.02 1.396 1.751 2.283 2.194.887.444 1.877.666 2.971.666 1.005 0 1.914-.097 2.727-.289a9.586 9.586 0 002.239-.82 9.77 9.77 0 001.929-1.33 16.686 16.686 0 001.796-1.862v-19.51l-.268-.281c-.985-1.004-2.027-1.716-3.124-2.136a10.515 10.515 0 00-3.791-.687zM238.78 34.5v11.085h-23.944V34.499h23.944z" id="c"/></defs><g fill="none" fill-rule="evenodd"><mask id="b" fill="#fff"><use xlink:href="#a"/></mask><use fill="#F3F6F9" xlink:href="#a"/><g mask="url(#b)"><g transform="translate(-106 -129)"><path fill="#45A8A5" fill-rule="nonzero" d="M106 129h860v420H106z"/><path d="M799.06 328.8c-1.12-1.76-4-1.76-6.38 0l-3.68 2.7 4.06 6.38 3.68-2.7c2.3-1.69 3.35-4.37 2.46-6.15l-.14-.23zm-16.62 0c-1.12-1.76-4-1.76-6.38 0s-3.44 4.62-2.32 6.38l1.72 2.7 8.7-6.38-1.72-2.7zm23.8 9.79a2.69 2.69 0 00-2.33 1.71 1.16 1.16 0 001.09 1.71 2.71 2.71 0 002.33-1.71 1.15 1.15 0 00-1.09-1.71zm-21.62-1.71c1.89 0 2.87 1.53 2.18 3.42a5.42 5.42 0 01-4.67 3.42c-1.89 0-2.86-1.53-2.17-3.42a5.39 5.39 0 014.66-3.42zm22.87-1.71c2.83 0 4.3 2.29 3.26 5.13a8.11 8.11 0 01-7 5.13c-2.83 0-4.29-2.3-3.26-5.13a8.1 8.1 0 017-5.13zm-21.79-1.25l-8.7 6.38 4.06 6.38 8.7-6.38-4.06-6.38zm-12 8.8l-3.69 2.7c-2.4 1.76-3.44 4.62-2.32 6.38 1.12 1.76 4 1.76 6.38 0l3.69-2.7-4.06-6.38zm17.6 0l-8.7 6.38 1.71 2.7c1.07 1.68 3.73 1.76 6.07.22l.31-.22c2.41-1.76 3.45-4.62 2.32-6.38l-1.71-2.7zm-.15-16.34c4.22-3.1 9.24-3.1 11.21 0 1.97 3.1.15 8.12-4.08 11.22l-3.68 2.7 1.72 2.7c1.9 3 .25 7.81-3.7 10.92l-.39.3c-4.22 3.1-9.25 3.1-11.22 0l-1.72-2.7-3.68 2.7c-4.09 3-8.94 3.09-11 .28l-.19-.28c-2-3.1-.14-8.12 4.08-11.22l3.69-2.7-1.72-2.7c-1.91-3-.25-7.81 3.7-10.92l.38-.3c4.23-3.1 9.25-3.1 11.22 0l1.72 2.7 3.66-2.7z" fill="#FFF" fill-rule="nonzero"/><path d="M924.49 402.98h-99.47a5.77 5.77 0 01-5.49-7.56l63.3-194.84a5.79 5.79 0 015.5-4h99.47a5.78 5.78 0 015.49 7.56l-63.31 194.84a5.769 5.769 0 01-5.49 4z" fill="#FFF" fill-rule="nonzero" opacity=".2"/><path d="M621.33 333.67h17.29c31.89-150.9-37-333.67-37-333.67H66.51v609.22c99.58 78.38 346.58 25.11 483.74-117.5l59.63-150.32a12.31 12.31 0 0111.45-7.73zM714.64 333.67h-76c-.67 3.16-1.4 6.3-2.21 9.42-14.71 56.63-45.65 106.55-86.16 148.68l-24.2 61H639.3l82.66-208.36a7.85 7.85 0 00-7.32-10.74z" fill="#29636B" fill-rule="nonzero"/><circle fill="#467E82" fill-rule="nonzero" cx="403.07" cy="531.67" r="164"/><path d="M572.57 351.15h-47.63a3 3 0 01-2.76-4.19 3 3 0 012.76-1.81h47.63a3 3 0 012.76 4.18 3 3 0 01-2.76 1.82z" fill="#6EF9BA" fill-rule="nonzero"/><path d="M549.38 363.48H519.8a3 3 0 01-2.76-4.18 3 3 0 012.76-1.82h29.58a3 3 0 012.76 4.19 3 3 0 01-2.76 1.81z" fill="#FFF" fill-rule="nonzero"/><path d="M566.57 363.48h-1.21a3 3 0 01-2.76-4.18 3 3 0 012.76-1.82h2.76a2 2 0 011.82 2.76l-.62 1.43a3 3 0 01-2.75 1.81z" fill="#FFF" fill-rule="nonzero" opacity=".3"/><path d="M518.89 391.86h-1.21a3 3 0 01-2.75-4.18 3 3 0 012.75-1.82h1.21a3 3 0 012.76 4.19 3 3 0 01-2.76 1.81zM514.79 401.88h-1.22a3 3 0 01-2.75-4.19 3 3 0 012.75-1.81h1.21a3 3 0 012.76 4.18 3 3 0 01-2.75 1.82zM510.69 411.9h-1.21a3 3 0 01-2.75-4.19 3 3 0 012.75-1.81h1.21a3 3 0 012.76 4.18 3 3 0 01-2.76 1.82z" fill="#FFF" fill-rule="nonzero"/><path d="M559.57 401.88h-25.38a3 3 0 01-2.76-4.19 3 3 0 012.76-1.81h25.38a3 3 0 012.76 4.18 3 3 0 01-2.76 1.82z" fill="#6EF9BA" fill-rule="nonzero"/><path d="M537.57 411.9h-13.68a3 3 0 01-2.75-4.19 3 3 0 012.75-1.81h13.68a3 3 0 012.75 4.18 3 3 0 01-2.75 1.82z" fill="#FFF" fill-rule="nonzero" opacity=".3"/><path d="M506.57 421.92h-1.21a3 3 0 01-2.75-4.19 3 3 0 012.75-1.81h1.21a3 3 0 012.76 4.18 3 3 0 01-2.76 1.82zM527.47 442.05h-10.16a3 3 0 01-2.75-4.19 3 3 0 012.75-1.81h10.16a3 3 0 012.76 4.18 3 3 0 01-2.76 1.82zM541 442.05h-1.85a3 3 0 01-2.76-4.19 3 3 0 012.76-1.81H541a3 3 0 012.75 4.18 3 3 0 01-2.75 1.82zM555.18 442.05h-1.2a3 3 0 01-2.76-4.19 3 3 0 012.76-1.81h1.2a3 3 0 012.76 4.18 3 3 0 01-2.76 1.82zM575.85 363.48a2 2 0 01-1.81-2.75l.88-2.05a2 2 0 011.81-1.2 2 2 0 011.82 2.76l-.89 2.05a2 2 0 01-1.81 1.19z" fill="#FFF" fill-rule="nonzero"/><path d="M625.04 363.48h-28.72a3 3 0 01-2.75-4.18 3 3 0 012.75-1.82h28.72a3 3 0 012.76 4.19 3 3 0 01-2.76 1.81z" fill="#FFF" fill-rule="nonzero" opacity=".3"/><path d="M544.22 375.82h-29.58a3 3 0 01-2.75-4.19 3 3 0 012.75-1.81h29.58a3 3 0 012.76 4.18 3 3 0 01-2.76 1.82z" fill="#FFF" fill-rule="nonzero"/><path d="M573.45 375.82h-13.24a3 3 0 01-2.76-4.19 3 3 0 012.76-1.81h13.24a3 3 0 012.76 4.18 3 3 0 01-2.76 1.82z" fill="#FFF" fill-rule="nonzero" opacity=".3"/><path d="M582.73 375.82a2 2 0 01-1.82-2.76l.89-2a2 2 0 011.81-1.19 2 2 0 011.81 2.75l-.88 2a2 2 0 01-1.81 1.2zM606.99 375.82h-14.11a3 3 0 01-2.75-4.19 3 3 0 012.75-1.81h14.11a3 3 0 012.75 4.18 3 3 0 01-2.75 1.82z" fill="#FFF" fill-rule="nonzero"/><path d="M545.08 338.82h-15a3 3 0 01-2.76-4.19 3 3 0 012.76-1.81h15a3 3 0 012.76 4.18 3 3 0 01-2.76 1.82z" fill="#FFF" fill-rule="nonzero" opacity=".3"/><path d="M872.65 641.98h-9.58c-8 0-12.43-6.52-9.82-14.56l170.32-524.18c2.61-8 11.24-14.56 19.28-14.56h9.58c8 0 12.44 6.52 9.83 14.56L891.94 627.42c-2.61 8.04-11.25 14.56-19.29 14.56zM928.43 640.87h-9.58c-8 0-12.44-6.52-9.83-14.56l170.32-524.18c2.61-8 11.25-14.56 19.29-14.56h9.58c8 0 12.44 6.52 9.82 14.56L947.72 626.31c-2.62 8.04-11.25 14.56-19.29 14.56z" fill="#29636B" fill-rule="nonzero"/><path d="M846.2 290.67h-5.51a.37.37 0 01-.35-.53l.68-2.09a.77.77 0 01.69-.52h5.51a.37.37 0 01.36.52l-.68 2.09a.81.81 0 01-.7.53zM879.24 290.67H849.8a.38.38 0 01-.36-.53l.69-2.09a.77.77 0 01.69-.52h29.44a.36.36 0 01.35.52l-.68 2.09a.78.78 0 01-.69.53zM842.74 301.37h-5.52a.37.37 0 01-.35-.53l.68-2.09a.8.8 0 01.7-.52h5.51a.36.36 0 01.35.52l-.68 2.09a.78.78 0 01-.69.53zM854.92 301.37h-8.59a.37.37 0 01-.35-.53l.68-2.09a.8.8 0 01.69-.52h8.59a.36.36 0 01.35.52l-.68 2.09a.79.79 0 01-.69.53zM864.57 301.37h-5.06a.37.37 0 01-.35-.53l.68-2.09a.77.77 0 01.69-.52h5.04a.36.36 0 01.35.52l-.68 2.09a.78.78 0 01-.67.53z" fill="#61E0A9" opacity=".3"/><path d="M873.25 296.04h-34.29a.38.38 0 01-.36-.53l.69-2.09a.77.77 0 01.69-.52h34.29a.36.36 0 01.35.52l-.68 2.09a.78.78 0 01-.69.53z" fill="#61E0A9"/><path d="M858.8 306.67h-23.31a.37.37 0 01-.35-.53l.68-2.09a.78.78 0 01.69-.52h23.31a.36.36 0 01.35.52l-.68 2.09a.78.78 0 01-.69.53z" fill="#61E0A9" opacity=".3"/><path d="M858.76 285.38h-16.34a.37.37 0 01-.35-.53l.68-2.09a.77.77 0 01.69-.52h16.34a.36.36 0 01.35.52l-.68 2.09a.79.79 0 01-.69.53z" fill="#61E0A9"/><path d="M872.36 285.38h-9.19a.38.38 0 01-.36-.53l.69-2.09a.77.77 0 01.69-.52h9.19a.36.36 0 01.35.52l-.68 2.09a.78.78 0 01-.69.53z" fill="#61E0A9" opacity=".3"/><path d="M850 322.67h-19.7a.37.37 0 01-.36-.52l.69-2.1a.77.77 0 01.69-.52h19.7a.36.36 0 01.35.52l-.68 2.1a.79.79 0 01-.69.52z" fill="#61E0A9"/><path d="M855.88 328.02h-27.31a.37.37 0 01-.36-.52l.68-2.1a.8.8 0 01.7-.52h27.31a.36.36 0 01.35.52l-.68 2.1a.79.79 0 01-.69.52zM843.57 317.36h-11.5a.37.37 0 01-.35-.53l.68-2.09a.77.77 0 01.69-.52h11.48a.36.36 0 01.35.52l-.68 2.09a.78.78 0 01-.67.53zM853.88 317.36h-5.06a.37.37 0 01-.35-.53l.68-2.09a.8.8 0 01.69-.52h5.06a.36.36 0 01.35.52l-.68 2.09a.78.78 0 01-.69.53zM860.39 312.03h-26.63a.37.37 0 01-.35-.53l.68-2.09a.77.77 0 01.69-.52h26.63a.36.36 0 01.35.52l-.68 2.09a.78.78 0 01-.69.53zM873.47 312.03h-9.19a.37.37 0 01-.35-.53l.68-2.09a.77.77 0 01.69-.52h9.19a.37.37 0 01.36.52l-.69 2.09a.78.78 0 01-.69.53zM830.1 338.67h-5a.37.37 0 01-.35-.52l.68-2.1a.77.77 0 01.69-.52h5a.36.36 0 01.35.52l-.68 2.1a.79.79 0 01-.69.52zM860.57 338.67h-27a.37.37 0 01-.35-.52l.68-2.1a.8.8 0 01.69-.52h27a.36.36 0 01.35.52l-.68 2.1a.79.79 0 01-.69.52zM825.93 349.34h-4.29a.36.36 0 01-.35-.52l.68-2.1a.77.77 0 01.69-.52h4.29a.37.37 0 01.36.52l-.68 2.1a.81.81 0 01-.7.52zM835.85 349.34h-6.8a.37.37 0 01-.35-.52l.68-2.1a.8.8 0 01.69-.52h6.8a.36.36 0 01.35.52l-.68 2.1a.79.79 0 01-.69.52zM843.68 349.34h-3.92a.37.37 0 01-.36-.52l.69-2.1a.77.77 0 01.69-.52h3.92a.37.37 0 01.36.52l-.68 2.1a.81.81 0 01-.7.52zM851.09 344.01h-27.72a.36.36 0 01-.35-.52l.68-2.1a.77.77 0 01.69-.52h27.72a.37.37 0 01.36.52l-.68 2.1a.81.81 0 01-.7.52zM838.69 354.67h-18.78a.37.37 0 01-.36-.52l.68-2.1a.8.8 0 01.7-.52h18.78a.36.36 0 01.35.52l-.68 2.1a.77.77 0 01-.69.52zM839.94 333.35h-13.11a.37.37 0 01-.35-.52l.68-2.1a.8.8 0 01.69-.52h13.11a.36.36 0 01.35.52l-.68 2.1a.79.79 0 01-.69.52z" fill="#61E0A9" opacity=".3"/><path d="M851.01 333.35h-7.29a.37.37 0 01-.35-.52l.68-2.1a.8.8 0 01.69-.52h7.29a.37.37 0 01.36.52l-.68 2.1a.81.81 0 01-.7.52zM830.57 370.67h-15.85a.36.36 0 01-.35-.52l.68-2.1a.77.77 0 01.69-.52h15.83a.36.36 0 01.35.52l-.68 2.1a.77.77 0 01-.67.52z" fill="#61E0A9"/><path d="M835.02 375.99h-22a.36.36 0 01-.35-.52l.68-2.1a.77.77 0 01.69-.52h22a.37.37 0 01.36.52l-.68 2.1a.8.8 0 01-.7.52zM825.57 365.33h-9.17a.36.36 0 01-.35-.52l.68-2.1a.77.77 0 01.69-.52h9.17a.36.36 0 01.35.52l-.68 2.1a.77.77 0 01-.69.52zM834.04 365.33h-3.92a.37.37 0 01-.36-.52l.69-2.1a.77.77 0 01.69-.52h3.92a.36.36 0 01.35.52l-.68 2.1a.77.77 0 01-.69.52zM839.66 360h-21.49a.37.37 0 01-.35-.52l.68-2.1a.8.8 0 01.69-.52h21.49a.36.36 0 01.35.52l-.68 2.1a.77.77 0 01-.69.52zM850.31 360h-7.29a.36.36 0 01-.35-.52l.68-2.1a.77.77 0 01.69-.52h7.29a.36.36 0 01.35.52l-.68 2.1a.77.77 0 01-.69.52zM876.22 367.52h5.51a.36.36 0 01.35.52l-.68 2.1a.77.77 0 01-.69.52h-5.51a.37.37 0 01-.36-.52l.68-2.1a.8.8 0 01.7-.52zM879.68 356.86h5.52a.37.37 0 01.35.52l-.68 2.1a.8.8 0 01-.69.52h-5.52a.36.36 0 01-.35-.52l.68-2.1a.77.77 0 01.69-.52zM871.96 362.19h11.5a.37.37 0 01.36.52l-.69 2.1a.77.77 0 01-.69.52h-11.5a.37.37 0 01-.35-.52l.68-2.1a.8.8 0 01.69-.52zM875.67 351.53h11.26a.36.36 0 01.35.52l-.68 2.1a.77.77 0 01-.69.52h-11.26a.36.36 0 01-.35-.52l.68-2.1a.77.77 0 01.69-.52z" fill="#61E0A9" opacity=".3"/><path d="M872.35 372.85H880a.36.36 0 01.35.52l-.68 2.1a.77.77 0 01-.69.52h-7.65a.37.37 0 01-.35-.52l.68-2.1a.8.8 0 01.69-.52z" fill="#61E0A9"/><path d="M884.47 335.54h7.65a.37.37 0 01.36.52l-.69 2.1a.79.79 0 01-.69.52h-7.65a.36.36 0 01-.35-.52l.68-2.1a.77.77 0 01.69-.52zM878.57 330.21h15.26a.37.37 0 01.36.52l-.68 2.1a.81.81 0 01-.7.52h-15.24a.36.36 0 01-.35-.52l.68-2.1a.77.77 0 01.67-.52zM878.89 340.87h11.5a.36.36 0 01.35.52l-.68 2.1a.79.79 0 01-.69.52h-11.5a.37.37 0 01-.35-.52l.68-2.1a.77.77 0 01.69-.52zM874.08 346.2h14.58a.36.36 0 01.35.52l-.68 2.1a.79.79 0 01-.69.52h-14.58a.36.36 0 01-.35-.52l.68-2.1a.77.77 0 01.69-.52zM892.32 319.55h5a.36.36 0 01.35.52l-.68 2.1a.79.79 0 01-.69.52h-5a.36.36 0 01-.35-.52l.68-2.1a.77.77 0 01.69-.52z" fill="#61E0A9" opacity=".3"/><path d="M896.49 308.89h4.29a.36.36 0 01.35.52l-.68 2.09a.78.78 0 01-.69.53h-4.29a.38.38 0 01-.36-.53l.68-2.09a.8.8 0 01.7-.52z" fill="#61E0A9"/><path d="M883.38 314.22h15.67a.36.36 0 01.35.52l-.68 2.09a.78.78 0 01-.69.53h-15.67a.38.38 0 01-.36-.53l.68-2.09a.8.8 0 01.7-.52z" fill="#61E0A9" opacity=".3"/><path d="M895.78 303.56h6.73a.37.37 0 01.36.52l-.68 2.09a.81.81 0 01-.7.53h-6.73a.37.37 0 01-.35-.53l.68-2.09a.77.77 0 01.69-.52zM882.48 324.88h13.09a.36.36 0 01.35.52l-.68 2.1a.8.8 0 01-.69.52h-13.11a.36.36 0 01-.35-.52l.68-2.1a.77.77 0 01.71-.52z" fill="#61E0A9"/><path d="M891.86 287.57h15.85a.36.36 0 01.35.52l-.68 2.09a.78.78 0 01-.69.53h-15.85a.37.37 0 01-.35-.53l.68-2.09a.78.78 0 01.69-.52zM899.45 282.24h10a.36.36 0 01.35.52l-.68 2.09a.78.78 0 01-.69.53h-10a.38.38 0 01-.36-.53l.68-2.09a.8.8 0 01.7-.52zM896.81 292.9h9.17a.36.36 0 01.35.52l-.68 2.09a.78.78 0 01-.69.53h-9.17a.37.37 0 01-.35-.53l.68-2.09a.77.77 0 01.69-.52zM894.81 298.23h9.44a.37.37 0 01.35.52l-.68 2.09a.81.81 0 01-.69.53h-9.44a.37.37 0 01-.35-.53l.68-2.09a.77.77 0 01.69-.52z" fill="#61E0A9" opacity=".3"/><path d="M585.75 342.29a1.9 1.9 0 01-1.82-2.48l4.58-14.77h-6.37a1.93 1.93 0 01-1.8-2.6l7.64-20.15a1.91 1.91 0 011.79-1.24H608a1.92 1.92 0 011.47 3.15L601 314.26h7a1.91 1.91 0 011.41 3.21l-22.24 24.2a1.92 1.92 0 01-1.42.62zm-.84-21.08h6.19c.611 0 1.186.29 1.55.78a1.88 1.88 0 01.28 1.7l-2.82 9.12 13.53-14.72h-6.76a1.92 1.92 0 01-1.47-3.15l8.48-10.06H591.1l-6.19 16.33zM908.71 253.03h-2l-1.78 2.2h4l-.22-2.2zm.47 4.41h-6.19l-.39.48-4.64 12.75h2.2l4.12-11.3h2.21l-4.12 11.3h2.2l4.64-12.75-.03-.48zm7.43-7.72h.25c3.43.08 3.65 1.82 2.32 5.85l-.14.44c-.93 2.91-.71 3.64 1.68 3.64l-.8 2.2c-2 0-2.59.61-3.74 3.46l-.18.44c-1.62 4.06-3.33 5.94-7.14 6h-.29l.8-2.21c2.39 0 3.14-.73 4.33-3.63l.17-.44a11.32 11.32 0 012.81-4.61c-.81-.94-.62-2.6.19-5.07l.15-.44c.92-2.85.77-3.45-1.23-3.45l.82-2.18zm-15.44 0l-.8 2.21c-2 0-2.59.6-3.74 3.45l-.18.44c-1 2.47-2 4.13-3.49 5.07.43.94.16 2.45-.55 4.61l-.14.44c-.94 2.9-.71 3.63 1.68 3.63l-.8 2.21h-.27c-3.75-.08-4.1-2-2.76-6l.14-.44c.93-2.85.78-3.46-1.22-3.46l.8-2.2c2.39 0 3.15-.73 4.33-3.64l.18-.44c1.6-4 3.08-5.77 6.57-5.85l.25-.03zm9.33-4.41l1.1 12.13-5.62 15.44h-11l5.62-15.44 9.9-12.13z" fill="#FFF" fill-rule="nonzero"/><path d="M608.74 400.23a2.76 2.76 0 00-2.38 1.74 1.18 1.18 0 001.11 1.75 2.75 2.75 0 002.38-1.75 1.18 1.18 0 00-1.11-1.74zm-8.37 0a2.76 2.76 0 00-2.38 1.74 1.18 1.18 0 001.11 1.75 2.76 2.76 0 002.38-1.75 1.18 1.18 0 00-1.11-1.74zm-8.37 0a2.75 2.75 0 00-2.38 1.74 1.18 1.18 0 001.11 1.75 2.76 2.76 0 002.38-1.75 1.18 1.18 0 00-1.11-1.74zm17.5-2.09c2.12 0 3.22 1.72 2.44 3.83a6.06 6.06 0 01-5.23 3.84c-2.12 0-3.21-1.72-2.44-3.84a6.07 6.07 0 015.23-3.83zm-8.37 0c2.12 0 3.21 1.72 2.44 3.83a6.06 6.06 0 01-5.23 3.84c-2.12 0-3.21-1.72-2.44-3.84a6.07 6.07 0 015.23-3.83zm-8.37 0c2.12 0 3.21 1.72 2.44 3.83a6.06 6.06 0 01-5.23 3.84c-2.12 0-3.22-1.72-2.45-3.84a6.1 6.1 0 015.24-3.83zm12.86 20l-11.79 11.07h15.52l-3.73-11.07zm-11.77 3.81l-8.48 8.23h4.88l4.74-4.46-1.14-3.77zm24.63-9.2h-31.4l-6.34 17.43h2.11l12.37-12 1.73 5.7 10-9.39 5.23 15.55 6.3-17.29zm2.85-2.09l-7.86 21.61h-35.59l7.87-21.61h35.58zm2.46-13.94h-31a7.48 7.48 0 00-2.69.4l-.33.14a5.49 5.49 0 00-1.9 1.39l-.24.28a10.47 10.47 0 00-1.57 3.19l-10 27.53a8.07 8.07 0 00-.77 3.19v.28a2 2 0 00.89 1.4 4.43 4.43 0 002.59.53h31.69a7.73 7.73 0 002.68-.39l.34-.14a5.75 5.75 0 001.9-1.4 7.94 7.94 0 001.54-2.78l.26-.69 10-27.53.23-.65a6.27 6.27 0 00.53-2.54v-.28a2 2 0 00-.88-1.39 4.51 4.51 0 00-2.59-.54h-.68zm1.7-3.49c2.23 0 3.34.29 4.34 1a4.1 4.1 0 011.8 2.82c.23 1.32 0 2.59-.91 5.12l-10 27.53a13.85 13.85 0 01-2.82 5.12 11.55 11.55 0 01-3.85 2.82 11.94 11.94 0 01-5.47.95h-30.34c-2.53 0-3.71-.24-4.78-.95a4.09 4.09 0 01-1.79-2.82c-.22-1.24 0-2.44.75-4.69l10.34-28.39a13.15 13.15 0 012.65-4.69 11.2 11.2 0 018.89-3.77l31.19-.05z" fill="#6EF9BA"/><circle fill="#FFF" fill-rule="nonzero" cx="344.27" cy="458.67" r="3.58"/><circle fill="#FFF" fill-rule="nonzero" cx="367" cy="458.67" r="3.58"/><circle fill="#FFF" fill-rule="nonzero" cx="355.64" cy="469.78" r="3.58"/><circle fill="#FFF" fill-rule="nonzero" cx="378.39" cy="458.67" r="3.58"/><circle fill="#FFF" fill-rule="nonzero" cx="401.13" cy="458.67" r="3.58"/><circle fill="#FFF" fill-rule="nonzero" cx="389.76" cy="469.78" r="3.58"/><circle fill="#FFF" fill-rule="nonzero" cx="412.51" cy="458.67" r="3.58"/><circle fill="#FFF" fill-rule="nonzero" cx="435.25" cy="458.67" r="3.58"/><circle fill="#FFF" fill-rule="nonzero" cx="367" cy="431.05" r="3.58"/><circle fill="#FFF" fill-rule="nonzero" cx="367.02" cy="442.17" r="3.58"/><circle fill="#FFF" fill-rule="nonzero" cx="355.64" cy="414.55" r="3.58"/><path fill="#FFF" fill-rule="nonzero" d="M367.51 442.17h-1v-10.96l-11.28-16.37.82-.57 11.46 16.63zM412.51 458.17h22.73v1h-22.73zM355.51 470.62l-11.59-11.6.7-.71 10.89 10.89 11.31-11.31.71.71z"/><circle fill="#6EF9BA" fill-rule="nonzero" cx="332.9" cy="469.78" r="3.58"/><circle fill="#6EF9BA" fill-rule="nonzero" cx="367.02" cy="469.78" r="3.58"/><circle fill="#6EF9BA" fill-rule="nonzero" cx="401.14" cy="469.78" r="3.58"/><circle fill="#6EF9BA" fill-rule="nonzero" cx="423.88" cy="469.78" r="3.58"/><circle fill="#6EF9BA" fill-rule="nonzero" cx="332.9" cy="442.17" r="3.58"/><circle fill="#6EF9BA" fill-rule="nonzero" cx="344.27" cy="431.05" r="3.58"/><circle fill="#6EF9BA" fill-rule="nonzero" cx="355.64" cy="442.17" r="3.58"/><circle fill="#6EF9BA" fill-rule="nonzero" cx="378.39" cy="431.05" r="3.58"/><circle fill="#6EF9BA" fill-rule="nonzero" cx="401.13" cy="431.05" r="3.58"/><circle fill="#6EF9BA" fill-rule="nonzero" cx="389.76" cy="442.17" r="3.58"/><circle fill="#6EF9BA" fill-rule="nonzero" cx="401.14" cy="442.17" r="3.58"/><circle fill="#6EF9BA" fill-rule="nonzero" cx="412.51" cy="431.05" r="3.58"/><circle fill="#6EF9BA" fill-rule="nonzero" cx="435.25" cy="431.05" r="3.58"/><circle fill="#6EF9BA" fill-rule="nonzero" cx="423.88" cy="442.17" r="3.58"/><circle fill="#6EF9BA" fill-rule="nonzero" cx="332.9" cy="414.55" r="3.58"/><circle fill="#6EF9BA" fill-rule="nonzero" cx="344.27" cy="403.44" r="3.58"/><circle fill="#6EF9BA" fill-rule="nonzero" cx="367" cy="403.44" r="3.58"/><circle fill="#6EF9BA" fill-rule="nonzero" cx="367.02" cy="414.55" r="3.58"/><circle fill="#6EF9BA" fill-rule="nonzero" cx="378.39" cy="403.44" r="3.58"/><circle fill="#6EF9BA" fill-rule="nonzero" cx="401.13" cy="403.44" r="3.58"/><circle fill="#6EF9BA" fill-rule="nonzero" cx="389.76" cy="414.55" r="3.58"/><circle fill="#6EF9BA" fill-rule="nonzero" cx="401.14" cy="414.55" r="3.58"/><circle fill="#6EF9BA" fill-rule="nonzero" cx="412.51" cy="403.44" r="3.58"/><circle fill="#6EF9BA" fill-rule="nonzero" cx="435.25" cy="403.44" r="3.58"/><circle fill="#6EF9BA" fill-rule="nonzero" cx="423.88" cy="414.55" r="3.58"/><path fill="#6EF9BA" fill-rule="nonzero" d="M378.026 431.392l.699-.715 11.368 11.117-.7.715zM412.164 403.79l.707-.707 11.243 11.243-.707.707zM366.5 403.44h1v11.12h-1z"/><circle fill="#6EF9BA" fill-rule="nonzero" cx="458.7" cy="379.81" r="27.03"/><circle fill="#6EF9BA" fill-rule="nonzero" cx="441.05" cy="388.87" r="20.74"/><circle fill="#FFF" fill-rule="nonzero" cx="394.88" cy="494.55" r="3.58"/><circle fill="#FFF" fill-rule="nonzero" cx="372.14" cy="494.55" r="3.58"/><circle fill="#FFF" fill-rule="nonzero" cx="383.51" cy="483.44" r="3.58"/><circle fill="#FFF" fill-rule="nonzero" cx="360.76" cy="494.55" r="3.58"/><circle fill="#FFF" fill-rule="nonzero" cx="338.02" cy="494.55" r="3.58"/><circle fill="#FFF" fill-rule="nonzero" cx="349.39" cy="483.44" r="3.58"/><circle fill="#FFF" fill-rule="nonzero" cx="326.64" cy="494.55" r="3.58"/><circle fill="#FFF" fill-rule="nonzero" cx="303.9" cy="494.55" r="3.58"/><circle fill="#FFF" fill-rule="nonzero" cx="372.14" cy="522.17" r="3.58"/><circle fill="#FFF" fill-rule="nonzero" cx="372.13" cy="511.05" r="3.58"/><circle fill="#FFF" fill-rule="nonzero" cx="383.51" cy="538.67" r="3.58"/><path fill="#FFF" fill-rule="nonzero" d="M371.64 511.05h1v10.96l11.28 16.38-.82.56-11.46-16.63z"/><circle fill="#6EF9BA" fill-rule="nonzero" cx="406.25" cy="483.44" r="3.58"/><circle fill="#6EF9BA" fill-rule="nonzero" cx="372.13" cy="483.44" r="3.58"/><circle fill="#6EF9BA" fill-rule="nonzero" cx="338" cy="483.44" r="3.58"/><circle fill="#6EF9BA" fill-rule="nonzero" cx="315.27" cy="483.44" r="3.58"/><circle fill="#6EF9BA" fill-rule="nonzero" cx="406.25" cy="511.05" r="3.58"/><circle fill="#6EF9BA" fill-rule="nonzero" cx="394.88" cy="522.17" r="3.58"/><circle fill="#6EF9BA" fill-rule="nonzero" cx="383.51" cy="511.05" r="3.58"/><circle fill="#6EF9BA" fill-rule="nonzero" cx="360.76" cy="522.17" r="3.58"/><circle fill="#6EF9BA" fill-rule="nonzero" cx="338.02" cy="522.17" r="3.58"/><circle fill="#6EF9BA" fill-rule="nonzero" cx="349.39" cy="511.05" r="3.58"/><circle fill="#6EF9BA" fill-rule="nonzero" cx="338" cy="511.05" r="3.58"/><circle fill="#6EF9BA" fill-rule="nonzero" cx="326.64" cy="522.17" r="3.58"/><circle fill="#6EF9BA" fill-rule="nonzero" cx="303.9" cy="522.17" r="3.58"/><circle fill="#6EF9BA" fill-rule="nonzero" cx="315.27" cy="511.05" r="3.58"/><circle fill="#6EF9BA" fill-rule="nonzero" cx="406.25" cy="538.67" r="3.58"/><circle fill="#6EF9BA" fill-rule="nonzero" cx="394.88" cy="549.78" r="3.58"/><circle fill="#6EF9BA" fill-rule="nonzero" cx="372.14" cy="549.78" r="3.58"/><circle fill="#6EF9BA" fill-rule="nonzero" cx="372.13" cy="538.67" r="3.58"/><circle fill="#6EF9BA" fill-rule="nonzero" cx="360.76" cy="549.78" r="3.58"/><circle fill="#6EF9BA" fill-rule="nonzero" cx="338.02" cy="549.78" r="3.58"/><circle fill="#6EF9BA" fill-rule="nonzero" cx="349.39" cy="538.67" r="3.58"/><circle fill="#6EF9BA" fill-rule="nonzero" cx="338" cy="538.67" r="3.58"/><circle fill="#6EF9BA" fill-rule="nonzero" cx="326.64" cy="549.78" r="3.58"/><circle fill="#6EF9BA" fill-rule="nonzero" cx="303.9" cy="549.78" r="3.58"/><circle fill="#6EF9BA" fill-rule="nonzero" cx="315.27" cy="538.67" r="3.58"/><path fill="#6EF9BA" fill-rule="nonzero" d="M349.028 511.389l.699-.715 11.368 11.116-.7.715zM315.04 538.895l.707-.707 11.243 11.243-.707.707z"/><path fill="#FFF" fill-rule="nonzero" d="M303.9 494.05h22.73v1H303.9zM383.64 482.61l11.59 11.59-.7.71-10.89-10.89-11.31 11.31-.71-.71z"/><path fill="#6EF9BA" fill-rule="nonzero" d="M371.64 538.67h1v11.12h-1z"/><path fill="#1B4647" fill-rule="nonzero" d="M477.07 549.67h-64l-15-83h79z"/><path d="M570.71 520.88h1c-16.3-8.63-26.84 4.79-26.84 4.79h-13.43v-15.34h14.38l20.36-7.72a15.06 15.06 0 0114 1.74l3.06 2.14 8 8a3.72 3.72 0 01-2.63 6.36l-17.9.03z" fill="#7FE298" fill-rule="nonzero"/><path d="M473.88 432.67h-20.9c7 20.57 4.28 93 26.14 93h52.28v-15.34l-12.34-1.85c-6.99-.81-.99-75.81-45.18-75.81z" fill="#1B4647" fill-rule="nonzero"/><path d="M470.04 472.94v-40.27H436.9a44.05 44.05 0 00-42 56.76c6.468 21.517 26.282 36.246 48.75 36.24h52.28v-15.34l-12.36-1.85a99 99 0 01-46.65-20.2l44.65 12.46-11.53-27.8z" fill="#1B4647" fill-rule="nonzero"/><path d="M535.24 520.88h1c-16.3-8.63-26.85 4.79-26.85 4.79h-13.42v-15.34h14.38l20.35-7.72a15 15 0 0114 1.74l3.06 2.14 8 8a3.73 3.73 0 01-2.63 6.36l-17.89.03z" fill="#99FFB6" fill-rule="nonzero"/><path fill="#0C2820" fill-rule="nonzero" d="M609.49 517.84h3.22v2.61h-3.22z"/><path fill="#29636B" fill-rule="nonzero" d="M612.71 517.84h5.37v2.61h-5.37z"/><path fill="#0C2820" fill-rule="nonzero" d="M595.73 517.84h3.22v2.61h-3.22z"/><path fill="#29636B" fill-rule="nonzero" d="M598.95 517.84h5.37v2.61h-5.37z"/><path fill="#0C2820" fill-rule="nonzero" d="M587.13 517.84h3.22v2.61h-3.22z"/><path fill="#29636B" fill-rule="nonzero" d="M590.36 517.84h5.37v2.61h-5.37z"/><path fill="#0C2820" fill-rule="nonzero" d="M578.53 517.84h3.22v2.61h-3.22z"/><path fill="#29636B" fill-rule="nonzero" d="M581.76 517.84h5.37v2.61h-5.37z"/><path fill="#0C2820" fill-rule="nonzero" d="M569.94 517.84h3.22v2.61h-3.22z"/><path fill="#29636B" fill-rule="nonzero" d="M573.16 517.84h5.37v2.61h-5.37z"/><path fill="#0C2820" fill-rule="nonzero" d="M561.34 517.84h3.22v2.61h-3.22z"/><path fill="#29636B" fill-rule="nonzero" d="M564.56 517.84h5.37v2.61h-5.37z"/><path fill="#0C2820" fill-rule="nonzero" d="M549.3 517.84h3.22v2.61h-3.22z"/><path fill="#29636B" fill-rule="nonzero" d="M552.53 517.84h5.37v2.61h-5.37z"/><path fill="#0C2820" fill-rule="nonzero" d="M540.7 517.84h3.22v2.61h-3.22z"/><path fill="#29636B" fill-rule="nonzero" d="M543.93 517.84h5.37v2.61h-5.37z"/><path fill="#0C2820" fill-rule="nonzero" d="M528.67 517.84h3.22v2.61h-3.22z"/><path fill="#29636B" fill-rule="nonzero" d="M531.89 517.84h5.37v2.61h-5.37zM545.86 520.45h77.38v5.22h-77.38z"/><path fill="#0C2820" fill-rule="nonzero" d="M521.79 520.45h24.07v5.22h-24.07z"/><rect fill="#1B4647" fill-rule="nonzero" x="741.74" y="367.67" width="151" height="113" rx="4.29"/><path d="M809.74 521.67h41a4 4 0 014 4h-45v-4z" fill="#29636B" fill-rule="nonzero"/><path d="M799.74 521.67h10v4h-14a4 4 0 014-4z" fill="#0C2820" fill-rule="nonzero"/><path d="M817.45 419.67h11.62a5.66 5.66 0 015.66 5.66v96.34h-17.29v-102h.01z" fill="#29636B" fill-rule="nonzero"/><path d="M817.45 419.67v102h-4.71v-97.29a4.71 4.71 0 014.71-4.71z" fill="#0C2820" fill-rule="nonzero"/><rect fill="#1B4647" fill-rule="nonzero" transform="rotate(-90 687.24 443.17)" x="611.74" y="394.67" width="151" height="97" rx="3.98"/><path d="M679.74 521.67h41a4 4 0 014 4h-45v-4z" fill="#29636B" fill-rule="nonzero"/><path d="M669.74 521.67h10v4h-14a4 4 0 014-4z" fill="#0C2820" fill-rule="nonzero"/><path d="M687.45 442.67h12.3a5 5 0 015 5v74h-17.29v-79h-.01z" fill="#29636B" fill-rule="nonzero"/><path d="M687.23 442.67h.22v79h-4.71v-74.51a4.49 4.49 0 014.49-4.49z" fill="#0C2820" fill-rule="nonzero"/><path d="M463.14 445.86h-1.93c-7 0-13.61-1-18.67-5.43a8.33 8.33 0 01-2.76-6.27v-34.3h28.79v40.15a5.65 5.65 0 01-5.43 5.85z" fill="#7FE298" fill-rule="nonzero"/><path d="M476.16 379.81h-17.83c-8.26 0-15 7.13-15 15.91a5.74 5.74 0 000 11.46c-.26 11.35 6 18.49 17.55 18.69h3.5c9 0 16.27-7.75 16.27-17.32v-23.88a4.69 4.69 0 00-4.49-4.86z" fill="#99FFB6" fill-rule="nonzero"/><path d="M439.79 374.42h38a4.17 4.17 0 014.17 4.17v10.24h-28c-7.82 0-14.16-6.34-14.16-14.16v-.25h-.01z" fill="#6EF9BA" fill-rule="nonzero"/><path d="M436.28 539.75h460v2.92a7.08 7.08 0 01-7.08 7.08H443.35a7.08 7.08 0 01-7.08-7.08v-2.92h.01z" fill="#0C2820" fill-rule="nonzero"/><rect fill="#2F9DA5" fill-rule="nonzero" x="415.28" y="525.75" width="493" height="14" rx="7"/><rect fill="#29636B" fill-rule="nonzero" x="415.28" y="525.75" width="143.67" height="14" rx="7"/><path d="M327.56 271.75a9.13 9.13 0 014.06.88 8.36 8.36 0 013.11 2.58 12.42 12.42 0 012 4.2 21.23 21.23 0 01.71 5.75 17.67 17.67 0 01-.79 5.4 13.21 13.21 0 01-2.24 4.32 10.33 10.33 0 01-8.29 3.92 9 9 0 01-7-2.94v11.37h-5v-35h3a1.23 1.23 0 011.31 1l.45 2.93a16.56 16.56 0 011.76-1.79 10.58 10.58 0 014.31-2.3 10.43 10.43 0 012.61-.32zm-31.63.08a13.75 13.75 0 015.22.94 10.84 10.84 0 014 2.71 12.09 12.09 0 012.52 4.25 18.39 18.39 0 010 11.18 12 12 0 01-2.52 4.25 10.94 10.94 0 01-4 2.7 15 15 0 01-10.46 0 11.1 11.1 0 01-4-2.7 11.89 11.89 0 01-2.54-4.25 18 18 0 010-11.18 12 12 0 012.54-4.25 11 11 0 014-2.71 13.82 13.82 0 015.24-.94zm-39.95-.01a12.18 12.18 0 014.42.78 9.86 9.86 0 013.49 2.29 10.5 10.5 0 012.31 3.68 13.92 13.92 0 01.84 5 3.23 3.23 0 01-.26 1.56 1.06 1.06 0 01-.95.4h-17.18a14.61 14.61 0 00.67 4.08 8.39 8.39 0 001.64 2.9 6.52 6.52 0 002.49 1.73 8.71 8.71 0 003.22.57 9.56 9.56 0 002.9-.39 14.63 14.63 0 002.12-.84c.59-.3 1.09-.58 1.49-.83a2.07 2.07 0 011.07-.39 1.11 1.11 0 011 .46l1.39 1.85a10.09 10.09 0 01-2.14 1.87 12.37 12.37 0 01-2.58 1.27c-.915.33-1.86.574-2.82.73a18.84 18.84 0 01-2.88.23 13.48 13.48 0 01-5-.92 11.14 11.14 0 01-4-2.68 12.4 12.4 0 01-2.63-4.38 18 18 0 01-.94-6 15.06 15.06 0 01.85-5.09 12.24 12.24 0 012.44-4.12 11.24 11.24 0 013.88-2.76 12.74 12.74 0 015.16-1zm-52.72 0a12.18 12.18 0 014.42.78 9.86 9.86 0 013.49 2.29 10.5 10.5 0 012.31 3.68 13.92 13.92 0 01.84 5 3.23 3.23 0 01-.26 1.56 1.06 1.06 0 01-.95.4h-17.17c0 1.404.212 2.8.63 4.14a8.22 8.22 0 001.63 2.9 6.52 6.52 0 002.49 1.73 8.71 8.71 0 003.22.57 9.56 9.56 0 002.9-.39 14.18 14.18 0 002.12-.84c.59-.3 1.09-.58 1.49-.83a2.1 2.1 0 011.07-.39 1.1 1.1 0 011 .46l1.42 1.79a10.09 10.09 0 01-2.14 1.87 12.37 12.37 0 01-2.58 1.27c-.915.33-1.86.574-2.82.73-.95.15-1.909.227-2.87.23a13.5 13.5 0 01-5-.92 11.14 11.14 0 01-4-2.68 12.4 12.4 0 01-2.63-4.38 18 18 0 01-.94-6 15.06 15.06 0 01.85-5.09 12.24 12.24 0 012.44-4.12 11.24 11.24 0 013.88-2.76 12.74 12.74 0 015.16-1zm150.7 0a12.22 12.22 0 014.42.78 9.86 9.86 0 013.49 2.29 10.5 10.5 0 012.31 3.68 13.92 13.92 0 01.84 5 3.23 3.23 0 01-.26 1.56 1.06 1.06 0 01-.95.4h-17.18c.024 1.385.25 2.76.67 4.08a8.24 8.24 0 001.64 2.9 6.52 6.52 0 002.49 1.73 8.71 8.71 0 003.22.57 9.56 9.56 0 002.9-.39 14.63 14.63 0 002.12-.84c.59-.3 1.09-.58 1.49-.83a2.07 2.07 0 011.07-.39 1.11 1.11 0 011 .46l1.39 1.85a10.09 10.09 0 01-2.14 1.87 12.37 12.37 0 01-2.58 1.27c-.915.33-1.86.574-2.82.73a18.84 18.84 0 01-2.88.23 13.48 13.48 0 01-5-.92 11.14 11.14 0 01-4-2.68 12.4 12.4 0 01-2.63-4.38 17.7 17.7 0 01-.94-6 14.82 14.82 0 01.85-5.09 12.24 12.24 0 012.44-4.12 11.24 11.24 0 013.88-2.76 12.74 12.74 0 015.16-1zm28.49-.02a7 7 0 011.61.19 4.36 4.36 0 011.33.58l-.34 3.79a.81.81 0 01-.85.7 6.58 6.58 0 01-1.08-.14 7.64 7.64 0 00-1.55-.14 5.89 5.89 0 00-2.14.35 4.87 4.87 0 00-1.66 1 6.71 6.71 0 00-1.3 1.67 17.06 17.06 0 00-1.06 2.26v16.4h-5v-26.2h2.89a1.58 1.58 0 011.12.3c.237.285.387.632.43 1l.32 3.71a11.9 11.9 0 013-4 6.49 6.49 0 014.28-1.47zM168.5 261.44a20.23 20.23 0 017.5 1.34 17 17 0 015.8 3.78 16.71 16.71 0 013.75 5.85 20.56 20.56 0 011.34 7.51 20.55 20.55 0 01-1.33 7.56 16.67 16.67 0 01-3.75 5.84 17 17 0 01-5.8 3.78 20.23 20.23 0 01-6.988 1.34H154.57v-37h13.93zm51.73 10.8a1.69 1.69 0 011 .28c.25.178.434.435.52.73l6.26 16.09c.22.67.42 1.33.58 2 .16.67.31 1.32.45 2 .14-.66.29-1.31.47-2 .173-.677.38-1.344.62-2l6.34-16.09a1.45 1.45 0 01.54-.73 1.6 1.6 0 01.93-.28h3.92l-10.62 26.2h-4.54l-10.62-26.2h4.15zm57.34-11.86v38.06h-5v-38.06h5zm48.35 15.45a7.24 7.24 0 00-3.81 1 11.07 11.07 0 00-3 2.79l.03 12.37a7.07 7.07 0 002.67 2.27 7.7 7.7 0 003.21.65 6.34 6.34 0 005.35-2.49c1.26-1.66 1.89-4.08 1.89-7.26a18.13 18.13 0 00-.43-4.27 8.1 8.1 0 00-1.23-2.89 5 5 0 00-2-1.65 6.57 6.57 0 00-2.68-.52zm-35.6 2.46c-1.233 1.667-1.847 4-1.84 7a11.7 11.7 0 001.84 7 6.51 6.51 0 005.61 2.59 6.43 6.43 0 005.55-2.5 14.48 14.48 0 000-14.09 6.42 6.42 0 00-5.55-2.52 6.5 6.5 0 00-5.61 2.52zm-121.79-12.44h-8.41V294h8.41a14.053 14.053 0 005.27-1 11 11 0 004-2.77 12.73 12.73 0 002.57-4.43 18.07 18.07 0 00.9-5.88 18.07 18.07 0 00-.9-5.91 12.59 12.59 0 00-2.57-4.44 11 11 0 00-4-2.77 13.86 13.86 0 00-5.27-.95zm82.55 11.47a8.88 8.88 0 00-2.31 5.08h13.72a8.41 8.41 0 00-.43-2.76 6.06 6.06 0 00-1.25-2.19 5.76 5.76 0 00-2-1.45 6.85 6.85 0 00-2.73-.51 6.72 6.72 0 00-5 1.83zm-52.72 0a8.88 8.88 0 00-2.31 5.08h13.71a8.68 8.68 0 00-.42-2.76 6.37 6.37 0 00-1.25-2.19 5.8 5.8 0 00-2-1.45 6.85 6.85 0 00-2.73-.51 6.72 6.72 0 00-5 1.83zm150.7 0a8.88 8.88 0 00-2.31 5.08h13.72a8.41 8.41 0 00-.43-2.76 6.06 6.06 0 00-1.25-2.19 5.76 5.76 0 00-2-1.45 6.85 6.85 0 00-2.73-.51 6.71 6.71 0 00-5 1.83z" fill="#FFF" fill-rule="nonzero"/><g fill-rule="nonzero" transform="translate(152.16 181.2)"><use fill="#000" xlink:href="#c"/><use fill="#6EF9BA" xlink:href="#c"/></g><path d="M140.62 523.88v-2.21l-4.8-2.77v-5.53l-.39-.23-1.52-.88-1.92-1.11v-.91l.79-.45 1.91 1.1 1.53.88.39.23 4.8-2.77 4.79 2.77.4-.23 1.52-.88-6.71-3.87-4.8 2.77-1.92-1.11-1.91 1.11 8.63-5 8.63 5 .79.45v.91l-1.92 1.11-1.52.88-.4.23v5.53l-4.79 2.77v2.22l6.71-3.88v-5.54l1.92-1.1v7.75l-8.63 5-.79.46-.79-.46-8.63-5v-7.75l1.52.88.4.22v5.54l6.72 3.88-.01-.01zm-10.55-13.84v12.18l5.67 3.27 4.88 2.81.79.46.79-.46 4.88-2.81 5.66-3.27v-13.09l-.79-.46-4.87-2.82-5.67-3.27-5.67 3.27-4.88 2.82-.79.46v.91z" fill="#FFF"/><path d="M229.02 509.13h-5.57v13.08h5.82a7.31 7.31 0 001.94-.24 4.48 4.48 0 001.51-.7 3.07 3.07 0 001-1.13 3.4 3.4 0 00.34-1.52 3 3 0 00-.23-1.19 2.84 2.84 0 00-.6-.9 3.62 3.62 0 00-.88-.64 5.27 5.27 0 00-1.1-.44c.266-.12.52-.264.76-.43a3 3 0 00.66-.62c.204-.26.366-.55.48-.86a3.33 3.33 0 00.18-1.14 3 3 0 00-.3-1.36 2.93 2.93 0 00-.86-1 4.14 4.14 0 00-1.35-.65 6 6 0 00-1.76-.23l-.04-.03zm41.05 0h-9.5v13.08h9.46v-1.34h-8v-4.58h8v-1.35h-8v-4.47h8v-1.34h.04zm-15.5 1.36h4.4v-1.36h-10.29v1.36h4.39v11.72h1.5v-11.72zm-13 6.53l5.44-7.89h-1.72l-4.45 6.54-4.42-6.54h-1.85l5.44 7.91v5.17h1.5v-5.19h.06zm-12.74-2.06h-3.87v-4.51h4a3.48 3.48 0 012.15.58c.492.37.772.956.75 1.57a2 2 0 01-.84 1.76 3.64 3.64 0 01-2.17.6h-.02zm.52 5.93h-4.39v-4.62h4.13a4.61 4.61 0 012.6.59c.572.358.908.996.88 1.67a2 2 0 01-.86 1.74 4 4 0 01-2.41.62h.05zM168.4 511.78v-2.65h-10.83v2.65h4v10.43h2.88v-10.43h3.95zm52.25 7.87h-7v-2.75h7v-2.56h-7v-1.45l-1.2-1.2h8.22v-2.56h-9.88v13.08h9.88v-2.54l-.02-.02zm-11.56 2.56v-2.61h-6.52v-10.47h-2.88v13.08h9.4zM198 513.67a4.75 4.75 0 00-.35-1.84 4 4 0 00-1-1.43 4.45 4.45 0 00-1.57-.93 6.22 6.22 0 00-2.1-.32h-5.35v13.08h2.94v-3.92h2.19a7.22 7.22 0 002.06-.29 5.1 5.1 0 001.69-.87 4.21 4.21 0 001.06-1.48 4.64 4.64 0 00.41-2h.02zm-2.92.05a1.89 1.89 0 01-.6 1.42 2.33 2.33 0 01-1.68.57h-1.08l-1.2 1.2v-5.21h2.23a2.64 2.64 0 011.71.51c.426.37.655.917.62 1.48v.03zm-9.12 8.47v-13.06h-2.88v13.08l2.88-.02zm-4.57 0l-3.19-4.67a4.51 4.51 0 002-1.47 4.13 4.13 0 00.77-2.59 4 4 0 00-1.3-3.17 5.32 5.32 0 00-3.63-1.14h-6v13.08h2.88v-4.18h2.26l2.81 4.18 3.4-.04zm-3.31-8.58a1.72 1.72 0 01-.57 1.35 2.41 2.41 0 01-1.63.5h-1.72l-1.2 1.2v-5h2.86a2.67 2.67 0 011.67.47c.411.344.63.865.59 1.4v.08z" fill="#FFF" fill-rule="nonzero"/></g></g></g></svg>